<?xml version="1.0" encoding="UTF-8" standalone="no"?>
<!DOCTYPE svg PUBLIC "-//W3C//DTD SVG 1.1//EN" "http://www.w3.org/Graphics/SVG/1.1/DTD/svg11.dtd">
<svg width="100%" height="100%" viewBox="0 0 2550 3300" version="1.1" xmlns="http://www.w3.org/2000/svg" xmlns:xlink="http://www.w3.org/1999/xlink" xml:space="preserve" xmlns:serif="http://www.serif.com/" style="fill-rule:evenodd;clip-rule:evenodd;stroke-linejoin:round;stroke-miterlimit:2;">
    <g transform="matrix(0.957764,0,0,0.947531,107.702,146.475)">
        <rect x="0" y="0" width="2550" height="2791.64" style="fill:rgb(245,255,0);fill-opacity:0.17;"/>
    </g>
    <g transform="matrix(0.697477,1.47444e-32,1.47444e-32,-0.697477,-315.823,3572.18)">
        <path d="M1221,3222C1263,3211 1319,3194 1346,3185C1373,3175 1431,3164 1475,3160C1519,3155 1587,3145 1625,3136C1664,3128 1754,3114 1826,3105C1980,3088 2393,3066 2420,3075C2430,3078 2440,3091 2442,3103C2446,3130 2473,3132 2479,3105C2481,3094 2496,3073 2512,3058C2537,3036 2550,3032 2593,3033C2623,3034 2651,3030 2658,3023C2688,2995 2776,3025 2800,3071C2808,3084 2821,3090 2848,3090C2892,3090 2976,3032 3000,2985C3018,2949 3029,2940 3056,2940C3068,2940 3083,2933 3091,2924C3099,2914 3111,2911 3124,2915C3189,2935 3205,2932 3243,2894C3264,2873 3279,2849 3277,2840C3274,2825 3271,2825 3241,2832C3231,2834 3223,2818 3215,2775C3208,2742 3197,2702 3190,2685C3183,2669 3178,2645 3179,2633C3181,2617 3176,2610 3163,2609C3149,2609 3150,2606 3169,2597C3190,2587 3196,2589 3222,2620C3238,2639 3254,2655 3258,2655C3262,2656 3279,2664 3297,2673C3315,2682 3336,2690 3345,2690C3367,2690 3364,2711 3340,2717C3329,2720 3320,2729 3320,2737C3320,2749 3348,2765 3440,2804C3455,2810 3471,2821 3600,2908C3643,2936 3674,2950 3697,2950C3720,2950 3730,2955 3730,2965C3730,2973 3737,2980 3746,2980C3758,2980 3761,2987 3757,3008C3753,3026 3761,3056 3781,3100C3812,3168 3813,3169 3887,3161C3893,3161 3901,3142 3905,3120C3909,3098 3917,3074 3923,3067C3930,3060 3945,3040 3957,3023L3980,2991L3948,2965C3929,2949 3914,2942 3912,2949C3905,2969 3890,2960 3890,2936C3890,2919 3880,2905 3861,2894C3827,2874 3811,2818 3832,2793C3839,2784 3843,2767 3842,2754C3839,2730 3853,2721 3865,2740C3873,2753 3900,2753 3900,2741C3900,2736 3891,2728 3880,2725C3869,2721 3862,2715 3865,2710C3876,2693 3848,2688 3831,2704C3814,2719 3812,2719 3807,2705C3803,2697 3786,2681 3769,2671C3738,2652 3738,2652 3761,2648C3783,2645 3781,2642 3743,2620C3709,2600 3702,2591 3706,2573C3714,2544 3683,2482 3658,2474C3646,2470 3642,2465 3648,2461C3654,2458 3663,2443 3669,2429C3677,2408 3674,2397 3657,2371C3629,2331 3620,2332 3620,2374C3620,2399 3614,2412 3595,2424C3569,2441 3569,2441 3576,2413C3580,2398 3589,2382 3596,2378C3608,2370 3604,2334 3589,2314C3577,2300 3588,2290 3616,2290C3630,2290 3647,2278 3659,2261C3682,2230 3686,2215 3670,2225C3665,2228 3660,2227 3660,2221C3660,2216 3665,2208 3672,2204C3679,2199 3676,2194 3661,2188C3649,2184 3641,2176 3645,2170C3653,2156 3549,2054 3518,2047C3501,2042 3491,2032 3487,2013C3484,1997 3456,1960 3426,1929L3370,1872L3370,1807C3370,1746 3372,1739 3405,1704C3424,1684 3440,1658 3440,1648C3440,1637 3456,1599 3477,1563C3513,1498 3524,1439 3507,1397C3502,1383 3496,1381 3480,1390C3469,1396 3460,1407 3460,1414C3460,1422 3453,1426 3443,1424C3431,1421 3418,1431 3404,1452C3393,1470 3383,1489 3383,1493C3382,1498 3371,1514 3357,1528C3343,1543 3327,1573 3321,1595C3310,1638 3260,1693 3224,1704C3210,1708 3195,1703 3176,1685C3152,1663 3147,1661 3134,1675C3125,1683 3110,1690 3100,1690C3090,1690 3080,1697 3076,1705C3070,1722 3005,1726 2995,1710C2992,1704 2965,1700 2937,1700C2860,1700 2837,1691 2844,1667C2847,1655 2844,1640 2838,1633C2830,1623 2833,1620 2853,1620C2867,1620 2881,1616 2885,1611C2888,1605 2861,1603 2819,1604C2766,1607 2741,1613 2720,1628C2696,1646 2691,1647 2686,1634C2681,1622 2676,1621 2648,1633C2614,1647 2565,1649 2553,1637C2550,1633 2532,1630 2513,1630C2495,1630 2480,1626 2480,1620C2480,1615 2485,1610 2491,1610C2499,1610 2499,1606 2490,1596C2474,1576 2399,1540 2374,1540C2361,1540 2350,1529 2343,1510C2337,1494 2325,1480 2316,1480C2298,1480 2301,1455 2326,1388C2333,1368 2336,1349 2332,1346C2327,1343 2301,1351 2274,1364C2227,1386 2200,1419 2200,1456C2200,1464 2194,1473 2186,1476C2178,1479 2153,1510 2130,1545C2077,1627 2059,1641 2007,1647C1968,1652 1963,1650 1952,1626C1928,1572 1877,1601 1833,1692C1816,1727 1784,1773 1761,1794L1720,1834L1647,1822C1562,1807 1446,1819 1390,1849C1258,1917 1215,1944 1218,1954C1219,1963 1202,1967 1163,1969C1090,1972 1075,1981 1055,2035C1045,2060 1031,2080 1024,2080C1016,2080 1010,2086 1010,2094C1010,2111 921,2170 896,2170C882,2170 879,2175 884,2195C892,2226 874,2297 854,2317C844,2328 843,2336 851,2351C858,2366 858,2375 850,2386C843,2393 841,2411 844,2425C848,2439 847,2450 842,2450C831,2450 810,2519 810,2555C810,2570 805,2600 798,2622C788,2656 789,2664 807,2688C819,2704 829,2739 833,2777C838,2822 852,2864 884,2927C954,3069 978,3180 945,3214C911,3248 948,3250 1003,3216C1036,3196 1039,3191 1025,3180C1009,3166 1004,3130 1019,3130C1038,3130 1060,3176 1060,3216L1060,3257L1103,3250C1126,3246 1179,3234 1221,3222Z" style="fill:rgb(136,174,162);stroke:black;stroke-width:13.48px;"/>
    </g>
    <g transform="matrix(1,0,0,1,-258.486,-30.1567)">
        <g transform="matrix(0.981229,0,0,1.66002,59.8172,-899.416)">
            <ellipse cx="1238.43" cy="1049.8" rx="531.356" ry="314.081" style="fill:rgb(41,64,244);stroke:rgb(41,55,244);stroke-width:6.89px;stroke-linecap:round;stroke-miterlimit:1.5;"/>
        </g>
        <path d="M1275,1835.27C1326.63,1799.47 1796.38,1430.49 1796.38,843.286L753.618,843.286C753.618,1430.49 1223.37,1799.47 1275,1835.27Z" style="fill:rgb(41,64,244);stroke:rgb(41,55,244);stroke-width:9.4px;stroke-linecap:round;stroke-miterlimit:1.5;"/>
        <g transform="matrix(0.577099,0,0,0.976324,560.304,-181.664)">
            <ellipse cx="1238.43" cy="1049.8" rx="531.356" ry="314.081" style="fill:white;stroke:rgb(41,55,244);stroke-width:11.72px;stroke-linecap:round;stroke-miterlimit:1.5;"/>
        </g>
    </g>
</svg>
